<?xml version="1.0" standalone="no"?><!DOCTYPE svg PUBLIC "-//W3C//DTD SVG 1.1//EN" "http://www.w3.org/Graphics/SVG/1.1/DTD/svg11.dtd"><svg t="1720309245356" class="icon" viewBox="0 0 1024 1024" version="1.1" xmlns="http://www.w3.org/2000/svg" p-id="5173" xmlns:xlink="http://www.w3.org/1999/xlink" width="200" height="200"><path d="M265.118476 637.244952A267.946667 267.946667 0 0 1 146.285714 414.47619c0-148.114286 120.07619-268.190476 268.190476-268.190476s268.190476 120.07619 268.190477 268.190476a267.946667 267.946667 0 0 1-118.832762 222.768762 415.865905 415.865905 0 0 1 230.619428 220.940191l115.95581-432.761905a36.571429 36.571429 0 0 1 70.656 18.919619l-152.259048 568.271238c0.097524 3.779048 0.146286 7.558095 0.146286 11.385905H0c0-176.249905 110.006857-326.802286 265.118476-386.755048zM621.714286 0h365.714285a36.571429 36.571429 0 0 1 0 73.142857h-365.714285a36.571429 36.571429 0 0 1 0-73.142857z m195.047619 170.666667h170.666666a36.571429 36.571429 0 0 1 0 73.142857h-170.666666a36.571429 36.571429 0 0 1 0-73.142857z" fill="#117def" p-id="5174"></path></svg>