<?xml version="1.0" standalone="no"?><!DOCTYPE svg PUBLIC "-//W3C//DTD SVG 1.1//EN" "http://www.w3.org/Graphics/SVG/1.1/DTD/svg11.dtd"><svg t="1720357895769" class="icon" viewBox="0 0 1024 1024" version="1.1" xmlns="http://www.w3.org/2000/svg" p-id="4378" xmlns:xlink="http://www.w3.org/1999/xlink" width="200" height="200"><path d="M875.4176 51.2c13.3632 0 24.2688 10.8544 24.2688 24.2688v686.4896c0 0.6656 0 1.3312-0.1024 2.048a24.32 24.32 0 0 1-24.1664 22.2208h-0.4608a23.3984 23.3984 0 0 1-5.5296 0.6656H241.664a68.608 68.608 0 0 0-68.4544 64.6144l0.1024 4.9152c0 0.6656-0.1536 1.28-0.1536 1.9456a68.6592 68.6592 0 0 0 68.5056 65.8432h609.4336V857.088c0-13.312 10.6496-24.064 23.8592-24.32h0.4608a24.2176 24.2176 0 0 1 24.2176 22.272v1.024l0.0512 92.4672a24.2688 24.2688 0 0 1-24.2688 24.2688H237.9776c-1.28 0-2.4576-0.2048-3.6864-0.4096A117.248 117.248 0 0 1 124.416 855.552l0.2048-4.1984-0.2048-41.3696-0.0512-55.808V555.6736v-16.896l0.0512-118.0672v-16.384l0.0512-32V356.864l0.0512-44.4416v-13.9776l0.0512-26.4192v-12.3904l0.0512-33.3824v-9.728l0.0512-31.3344V171.008c-0.0512-0.8704-0.2048-1.6896-0.2048-2.56A117.3504 117.3504 0 0 1 241.664 51.2h633.7024z m-47.4112 71.68H241.664a43.8784 43.8784 0 0 0-32.1536 13.3632 43.6736 43.6736 0 0 0-13.312 29.184l0.2048 1.5872-0.3584 345.4976 0.1536 209.92c14.1824-4.8128 29.3376-7.168 45.4656-7.168h586.3424V122.88z" fill="#117def" p-id="4379"></path><path d="M718.6432 211.0976c9.8304 3.2768 12.288 13.9264 7.3728 31.9488 0 1.6384-2.4576 4.9152-7.3728 9.8304-8.192 3.328-13.1072 7.3728-14.7456 12.288-3.2768 8.192-5.7344 21.3504-7.3728 39.3216-3.328 23.04-4.096 36.096-2.4576 39.3728 8.192 0 21.2992-1.6384 39.3216-4.9152 16.384-1.6384 25.3952-2.4576 27.0848-2.4576 9.8304 4.9152 17.2032 20.48 22.1184 46.6944a23.04 23.04 0 0 1-12.288 17.2032 71.68 71.68 0 0 1-12.288-2.4576c-18.0736-6.5024-29.5424-8.96-34.4576-7.3728-24.576 0-37.7344 3.328-39.3216 9.8304 1.5872 34.4576 0 75.4176-4.9152 122.9312a292.352 292.352 0 0 0-4.9152 44.288c0 9.8304 1.5872 30.3104 4.9152 61.44 3.2768 22.9888 4.9152 36.864 4.9152 41.7792 0 8.192-4.9152 12.288-14.7456 12.288-6.6048 0-16.384-4.096-29.4912-12.288 4.9152-45.824 7.3728-102.4 7.3728-169.6256V405.2992c-6.6048-13.1072-25.4464-13.1072-56.576 0-9.8304 8.192-22.1184 36.096-36.864 83.6096-3.328 9.8304-5.7856 16.384-7.3728 19.6608-1.6384 3.328-0.8704 7.3728 2.4576 12.288v7.3728c-1.6384 9.8304-10.7008 21.3504-27.0336 34.4576a113.664 113.664 0 0 1-41.8304 22.1184c-19.6608 4.9152-31.9488 5.7344-36.864 2.4576-1.6384-3.2768 9.8304-20.48 34.4064-51.6608 6.5536-8.192 11.4688-13.8752 14.7456-17.2032 31.1296-40.96 46.7456-73.728 46.7456-98.304a254.3104 254.3104 0 0 0-59.0336 12.288 56.832 56.832 0 0 0-7.3728 12.288c-3.2768 8.192-6.5536 13.9264-9.8304 17.2032-6.5536 6.5536-12.288 17.2032-17.2032 31.9488-1.6384 8.192-3.2768 13.1584-4.9152 14.7456a41.3696 41.3696 0 0 0-9.8304 2.4576c-21.2992 1.6384-35.2768 5.7856-41.7792 12.288a28.0576 28.0576 0 0 0-4.9152 7.3728c-3.328 6.6048-7.3728 9.8304-12.288 9.8304-11.52 1.6896-25.4464-28.672-41.8304-90.9312 1.6384-4.9152-5.7344 0-22.1184 14.7456a138.24 138.24 0 0 1-44.2368 19.6608c-14.7456 1.6384-23.808-0.8192-27.0848-7.3728l29.5424-29.4912c24.576-16.384 45.056-36.864 61.44-61.44 18.0224-27.904 30.3104-51.712 36.864-71.3216-9.8304 0-14.7456-0.8192-14.7456-2.4576 0-6.5536-1.6384-15.5648-4.9152-27.0848a80.0256 80.0256 0 0 1-4.9152-24.576c3.2768-11.4176 12.288-18.0224 27.0336-19.6608 11.4688 4.9152 27.8528 6.5536 49.152 4.9152h2.5088c24.576-8.192 50.7904-10.6496 78.6432-7.3728 6.5536 0 9.8816 3.2768 9.8816 9.8304a39.7824 39.7824 0 0 1-7.3728 24.576c-1.6896 3.328-7.424 6.6048-17.2544 9.8304a27.0848 27.0848 0 0 0-9.8304 4.9152 148.5824 148.5824 0 0 0-29.4912 27.0848 153.344 153.344 0 0 0-9.8304 12.288c-31.1296 34.4064-45.056 52.48-41.7792 54.0672 35.9936-4.9152 62.2592-0.8192 78.6432 12.288 1.6384 1.6384 3.2768 2.4576 4.9152 2.4576 3.2768 1.6384 4.9152-4.096 4.9152-17.2032l2.4576-7.3728c8.192 1.6384 20.48 0.8704 36.864-2.4576 11.4688-1.6384 20.48-2.4576 27.0848-2.4576 4.9152-1.6384 8.192-9.0112 9.8304-22.1184 0-22.9376-1.6384-40.1408-4.9152-51.6608-1.6384-1.5872-4.096-2.4576-7.3728-2.4576-4.9152-1.5872-8.192-4.096-9.8304-7.3728a159.232 159.232 0 0 1-4.9152-27.0336c-1.6896-14.7456-1.6896-22.9376 0-24.576 3.2768-1.6384 7.3728-0.8192 12.288 2.4576 4.9152 1.6384 8.192 2.4576 9.8304 2.4576 22.9376 1.6384 66.3552-4.096 130.304-17.2032 22.9376-4.9152 35.2256-7.3728 36.864-7.3728zM413.7984 415.1296c-8.192-6.5024-18.0736-4.9152-29.4912 4.9152-4.9664 6.6048-7.424 18.8928-7.424 36.864 1.6384 9.8816 10.6496 12.288 27.0848 7.424 4.9152-4.9152 8.96-14.7456 12.288-29.5424 1.5872-9.8304 0.8192-16.384-2.4576-19.6608z m206.5408-125.3888c-8.2432 0-14.7968 5.7856-19.712 17.2544-4.9152 18.0224-4.9152 32.768 0 44.2368l39.3728-4.9152c3.2256-1.6384 4.9152-17.2032 4.9152-46.7456-1.6896-6.5024-9.8304-9.8304-24.576-9.8304z" fill="#117def" p-id="4380"></path></svg>