<?xml version="1.0" standalone="no"?><!DOCTYPE svg PUBLIC "-//W3C//DTD SVG 1.1//EN" "http://www.w3.org/Graphics/SVG/1.1/DTD/svg11.dtd"><svg t="1719980858003" class="icon" viewBox="0 0 1024 1024" version="1.1" xmlns="http://www.w3.org/2000/svg" p-id="7894" xmlns:xlink="http://www.w3.org/1999/xlink" width="200" height="200"><path d="M624.64 619.52m-281.6 0a281.6 281.6 0 1 0 563.2 0 281.6 281.6 0 1 0-563.2 0Z" fill="#333333" opacity=".3" p-id="7895"></path><path d="M785.066667 989.866667H238.933333c-13.653333 0-25.6-11.946667-25.6-25.6V556.373333c0-163.84 133.12-298.666667 298.666667-298.666666s298.666667 133.12 298.666667 298.666666v407.893334c0 13.653333-11.946667 25.6-25.6 25.6z m-520.533334-51.2h493.226667V556.373333c0-136.533333-110.933333-247.466667-247.466667-247.466666s-247.466667 110.933333-247.466666 247.466666V938.666667z" fill="#333333" p-id="7896"></path><path d="M510.293333 769.706667c-5.12 0-10.24-1.706667-15.36-5.12-11.946667-8.533333-13.653333-23.893333-6.826666-35.84l52.906666-76.8h-110.933333c-10.24 0-18.773333-5.12-23.893333-15.36-3.413333-8.533333-3.413333-18.773333 3.413333-27.306667l104.106667-126.293333c8.533333-10.24 25.6-11.946667 35.84-3.413334 10.24 8.533333 11.946667 25.6 3.413333 35.84l-69.973333 83.626667h105.813333c10.24 0 18.773333 5.12 22.186667 13.653333 5.12 8.533333 3.413333 18.773333-1.706667 27.306667l-81.92 116.053333c-1.706667 10.24-8.533333 13.653333-17.066667 13.653334zM512 170.666667c-13.653333 0-25.6-11.946667-25.6-25.6v-85.333334c0-13.653333 11.946667-25.6 25.6-25.6s25.6 11.946667 25.6 25.6v85.333334c0 13.653333-11.946667 25.6-25.6 25.6zM264.533333 259.413333c-6.826667 0-13.653333-1.706667-18.773333-6.826666l-59.733333-59.733334c-10.24-10.24-10.24-25.6 0-35.84s25.6-10.24 35.84 0l59.733333 59.733334c10.24 10.24 10.24 25.6 0 35.84-3.413333 3.413333-10.24 6.826667-17.066667 6.826666zM759.466667 259.413333c-6.826667 0-13.653333-1.706667-18.773334-6.826666-10.24-10.24-10.24-25.6 0-35.84l59.733334-59.733334c10.24-10.24 25.6-10.24 35.84 0s10.24 25.6 0 35.84l-59.733334 59.733334c-3.413333 3.413333-10.24 6.826667-17.066666 6.826666z" fill="#333333" p-id="7897"></path><path d="M925.013333 989.866667H98.986667c-13.653333 0-25.6-11.946667-25.6-25.6S85.333333 938.666667 98.986667 938.666667h826.026666c13.653333 0 25.6 11.946667 25.6 25.6S938.666667 989.866667 925.013333 989.866667z" fill="#333333" p-id="7898"></path></svg>