<?xml version="1.0" standalone="no"?><!DOCTYPE svg PUBLIC "-//W3C//DTD SVG 1.1//EN" "http://www.w3.org/Graphics/SVG/1.1/DTD/svg11.dtd"><svg t="1720135032443" class="icon" viewBox="0 0 1024 1024" version="1.1" xmlns="http://www.w3.org/2000/svg" p-id="4346" xmlns:xlink="http://www.w3.org/1999/xlink" width="200" height="200"><path d="M513.511702 1.548573C231.622266 1.548573 3.072565 230.098274 3.072565 512.01229a508.497275 508.497275 0 0 0 129.957224 340.219017c84.16371-39.894189 201.044096-77.993999 208.319931-83.917905 10.545044-8.578602 44.244941-54.07715 44.244941-54.077151h2.31057v-50.980004a282.036919 282.036919 0 0 1-31.782616-50.193427c-4.793202-9.832209-8.898149-31.069781-12.413164-58.010034-39.623803-18.140426-44.417005-81.459853-46.088481-116.954128-0.835738-17.722557 7.865767-18.951583 17.37843-15.215343-12.093617-36.059627-26.276579-77.674452-29.275403-83.573778-5.407715-10.643366 20.156029-87.875369 39.574642-105.991214 0 0-20.156029 7.890348-27.358122 21.286732s92.078638-215.939893 317.309969-59.902734c0 0 138.904534 25.219616 122.70597 123.345064a760.496795 760.496795 0 0 1-24.580523 103.754387c8.160734-2.163086 14.871216 0.614513 14.133801 16.296886-1.671476 35.469694-6.464678 98.764541-46.039319 116.929547-3.515015 27.038575-7.619962 48.128664-12.290262 58.034615a282.676012 282.676012 0 0 1-32.716676 51.373292v49.82472h2.310569s33.626155 45.498548 44.244941 54.07715c7.374157 5.973067 126.02434 44.638229 210.310954 84.851965a508.521856 508.521856 0 0 0 130.792962-341.177657C1023.950839 230.098274 795.425718 1.548573 513.511702 1.548573z" fill="#CBDDEC" p-id="4347"></path><path d="M638.675724 714.260832h-2.310569v-49.82472a282.676012 282.676012 0 0 0 32.716676-51.373292c4.793202-9.832209 8.898149-31.069781 12.290261-58.034615 39.574642-18.165006 44.367844-81.459853 46.03932-116.929547 0.737416-15.682374-5.997648-18.459973-14.133801-16.296886a760.496795 760.496795 0 0 0 24.580523-103.754387c16.198565-98.125447-122.70597-123.345063-122.70597-123.345064-225.255911-156.037159-324.462901 73.299119-317.383711 59.902734s27.358122-21.286733 27.358122-21.286732c-19.443194 18.115845-44.982357 95.372429-39.574641 105.991214 2.974243 5.874745 17.206366 47.48957 29.275402 83.573778-9.537243-3.736239-18.214167-2.458052-17.378429 15.215343 1.671476 35.494275 6.464678 98.813702 46.08848 116.954128 3.515015 27.038575 7.619962 48.104083 12.413164 58.010034a282.036919 282.036919 0 0 0 31.782616 50.193427v51.004585h-2.310569s-33.626155 45.498548-44.244941 54.07715c-7.374157 5.923906-124.156221 44.023716-208.319931 83.917905a510.365395 510.365395 0 0 0 760.128087 0.95864c-84.311193-40.238316-202.985957-78.878898-210.310953-84.851964-10.372981-8.627764-43.999136-54.101731-43.999136-54.101731z" fill="#63A2D6" p-id="4348"></path></svg>