<?xml version="1.0" standalone="no"?><!DOCTYPE svg PUBLIC "-//W3C//DTD SVG 1.1//EN" "http://www.w3.org/Graphics/SVG/1.1/DTD/svg11.dtd"><svg t="1719925540237" class="icon" viewBox="0 0 1024 1024" version="1.1" xmlns="http://www.w3.org/2000/svg" p-id="4337" xmlns:xlink="http://www.w3.org/1999/xlink" width="200" height="200"><path d="M582.1 299.5H288.7c-11.1 0-20-9.2-20-20.6 0-11.4 8.9-20.6 20-20.6h293.4c11.1 0 20 9.2 20 20.6 0 11.2-9.1 20.6-20 20.6z m-70 134.8H288.7c-11.1 0-20-9.2-20-20.6 0-11.4 8.9-20.6 20-20.6h223.4c11.1 0 20 9.2 20 20.6 0 11.3-9.1 20.6-20 20.6z m-92.6 135H288.7c-11.1 0-20-9.2-20-20.6 0-11.4 8.9-20.6 20-20.6h131c11.1 0 20 9.2 20 20.6-0.2 11.2-9.1 20.6-20.2 20.6z m0 0" fill="#294D7C" p-id="4338"></path><path d="M756.1 88.5H205.5c-30.4 0-55.1 24.6-55.1 55.1v699.3c0 30.4 24.6 55.1 55.1 55.1h295.9c11.4 0 20.6-9.2 20.6-20.6 0-11.4-9.2-20.6-20.6-20.6H219.2c-15.1 0-27.5-12.4-27.5-27.5v-672c0-15.1 12.4-27.5 27.5-27.5h523.1c15.1 0 27.5 12.4 27.5 27.5v430.8c0 11.4 9.2 20.6 20.6 20.6 11.4 0 20.6-9.2 20.6-20.6V143.5c0.1-30.4-24.5-55-54.9-55z m0 0" fill="#294D7C" p-id="4339"></path><path d="M805.9 892.6c-19.5 0-41.5-6.9-42.5-7.2l-3.7-1.2-127.1-125c-12.3 1.8-24.1 2.7-35 2.7-41.3 0-72.8-12.9-93.6-38.3-37.7-46-24.4-115.4-23.8-118.4l5.5-27.5 68.5 61.4 27.7-26.6-67.6-72.1 31.7-3.6c11.1-1.3 21.8-1.9 31.8-1.9 47.8 0 82.9 14.3 104.5 42.5 28.1 36.8 23.6 85.9 19.8 107.5l139.2 105.7 1.7 3.2c15 29 9 62.1 8.8 63.5l-0.1 0.5c-5.2 23.7-26.1 31.5-28.4 32.3l-0.8 0.2c-4.9 1.6-10.3 2.3-16.6 2.3z m-29.3-36.7c6 1.6 18.7 4.7 29.3 4.7 3.4 0 5.6-0.3 7-0.6 1.5-0.7 6.1-3.2 7.4-8.6 0.4-2.3 3.2-22.3-4.4-39.7L666.1 697.8l2.8-10.4c0.1-0.5 14.6-55.9-12.1-90.6-14.4-18.8-39.2-28.8-73.6-29.7l43.8 46.7-71.9 69-45.4-40.7c0.5 19.1 4.5 43.4 19.3 61.3 14.5 17.6 37.6 26.5 68.8 26.5 11.5 0 24.1-1.2 37.7-3.6l8.1-1.4 133 131z" fill="#558DF7" p-id="4340"></path></svg>