<?xml version="1.0" standalone="no"?><!DOCTYPE svg PUBLIC "-//W3C//DTD SVG 1.1//EN" "http://www.w3.org/Graphics/SVG/1.1/DTD/svg11.dtd"><svg t="1716469774802" class="icon" viewBox="0 0 1024 1024" version="1.1" xmlns="http://www.w3.org/2000/svg" p-id="14435" xmlns:xlink="http://www.w3.org/1999/xlink" width="200" height="200"><path d="M791.32859733 423.647232c0.34048001-0.22698667 0.56627201-0.56627201 0.79325867-0.90555734 2.15278933-2.71906133 6.68296534-7.36273067 13.14013867-7.36273065 4.64366933 0 9.85361066 2.37858133 15.29173333 7.13574399l0.792064 0.68096 0.90675199 0.451584c0.11349334 0.11349334 16.310784 7.70321066 31.71601068 33.52951467 14.49847466 24.23978666 31.14973867 69.77570134 28.77115733 148.83874133l-0.11349333 3.05834666 59.69390933 59.46811734 4.19208533-9.51432533c0.56627201-1.24603733 13.705216-31.71720533 24.579072-75.66660267 10.08179201-40.55057067 19.93659732-100.47146666 9.856-155.86218667-0.22698667-4.41787733-2.379776-29.45092267-23.67470933-68.30267733-20.84215467-38.05969068-64.90504534-97.75360001-156.99473066-166.057472l-2.26628266-1.698816-2.71786668 0.34048001s-2.49207467 0.22698667-6.34368 0.22698666c-10.19409067 0-35.793408-1.813504-51.8784-19.14453335-11.55362134-12.34568533-16.53777067-30.69576533-14.83776-54.36927998l0.225792-3.28533334-76.57216-76.68565333-136.152576 136.152576 68.41617066 68.41736533 2.71786666 0.11229866c0.68096 0 69.32292267 3.39882667 94.13017601 42.81685334 12.34568533 19.59611734 11.89290667 45.42242134-1.24603733 76.91264l-224.39304533 226.09066668-43.72241066-6.45597868-264.03686401 264.15035733-0.45397334 1.81230934c-0.79206401 2.71786667-18.46357333 67.51061333 29.22513067 108.74094933 4.07739733 4.64366933 33.52831999 36.02039467 91.40992 36.02039467 1.473024 0 2.83136 0 4.30438401-0.11349333l2.94485332-0.11229867 259.05390934-268.90752 4.870656-43.61130667 258.37294933-256.90112z" fill="#FB905A" p-id="14436"></path><path d="M241.50596267 473.034752c42.477568 0 77.02493868-13.02664533 89.25832533-18.35008l83.93489066 84.04718933 121.65410134-121.65290666-87.33252266-87.33371734c22.88145067-54.71095467 23.67351468-105.796096 2.60437333-151.89828266-23.67351468-51.65141333-71.020544-87.33252266-106.70165334-108.06118401-38.28548268-22.31517866-70.68125867-32.50926933-72.04078933-32.96204799l-0.22698667-0.11349335c-7.36273067-2.039296-14.04569599-2.94485333-19.82190933-2.94485332-10.53457067 0-18.35008 3.28533333-23.33422932 9.741312-8.042496 10.42107732-4.75716266 24.58026667-4.30438402 26.16558933l0.56627201 2.26508801 1.81230933 1.47302399c86.313472 71.24872533 84.50116267 99.226624 83.93489067 102.73774935l-0.45397334 0.45397332-0.22698666 2.03810134c-5.096448 38.39897599-22.313984 71.701504-50.85815466 98.88614399-21.06914134 20.05009067-40.89105067 29.22513067-42.02359468 29.67790935-9.51552 4.07739733-19.37032534 6.11669333-29.223936 6.11669333-63.99829332 0-114.85883733-84.72814933-115.311616-85.52021334l-1.69881599-2.83136001-3.17184001-0.56746666c-2.37858133-0.45397332-4.64366933-0.67976532-6.79645866-0.67976534-7.58852267 0-13.93220268 2.605568-18.46357334 7.58971734-8.83456 9.741312-7.47502933 24.92074667-7.36273067 26.618368v0.45397333l0.11349334 0.45277866c40.09898667 177.04362667 133.887488 214.19776001 205.47549867 214.19776001z m724.71466666 371.305984l-260.75153065-251.2384-122.90013868 122.78784 247.3856 263.01781332c0.906752 1.01905067 9.28853333 9.741312 19.482624 9.741312 9.96829867 0 16.31197867-5.66391467 16.991744-6.34367999l101.94449066-101.94449065c1.47182933-1.35953067 6.23018667-6.68296534 6.23018667-17.10404268 0.11349334-10.76155733-6.79765333-17.558016-8.382976-18.916352zM820.77952 891.46197332l-13.93220267-43.04383999c-0.67976532-2.60437333 0.22698667-5.20994134 2.37858134-7.02344533l36.47317333-26.50487466c1.13373867-0.68096 2.379776-1.132544 3.73930667-1.13254402s2.60437333 0.33928534 3.73691733 1.13254402l36.58666667 26.50487466a6.87172267 6.87172267 0 0 1 2.26628266 7.02344533l-13.93339733 43.04383999c-1.01905067 2.49207467-3.397632 4.30438399-6.00319999 4.41668268h-45.19424002c-2.71906133-0.11229866-5.09764267-1.81230934-6.11669333-4.41668268z" fill="#FB905A" p-id="14437"></path></svg>