<?xml version="1.0" standalone="no"?><!DOCTYPE svg PUBLIC "-//W3C//DTD SVG 1.1//EN" "http://www.w3.org/Graphics/SVG/1.1/DTD/svg11.dtd"><svg t="1720361767800" class="icon" viewBox="0 0 1024 1024" version="1.1" xmlns="http://www.w3.org/2000/svg" p-id="7345" xmlns:xlink="http://www.w3.org/1999/xlink" width="200" height="200"><path d="M566.613333 532.48c-8.533333-12.8-23.04-21.333333-39.253333-21.333333-24.746667 0-45.226667 18.773333-46.933333 42.666666v4.266667c0 11.946667 13.653333 187.733333 14.506666 194.56 0 3.413333 1.706667 6.826667 2.56 10.24 3.413333 7.68 10.24 13.653333 17.92 17.066667 33.28 12.8 198.826667 75.093333 221.866667 82.773333 0.853333 0 2.56 0.853333 2.56 0.853333 3.413333 0.853333 7.68 0 11.093333-1.706666 8.533333-4.266667 12.8-14.506667 8.533334-23.893334-1.706667-3.413333-3.413333-5.12-5.973334-6.826666-4.266667-2.56-138.24-73.386667-192-101.546667 0.853333-17.92 1.706667-42.666667 2.56-68.266667 19.626667 28.16 36.693333 52.906667 38.4 54.613334 0 0.853333 0.853333 0.853333 0.853334 1.706666 5.12 5.973333 11.946667 8.533333 19.626666 9.386667 17.92 1.706667 189.44 7.68 197.973334 6.826667 3.413333 0 6.826667-1.706667 10.24-4.266667 6.826667-5.973333 6.826667-16.213333 0.853333-22.186667-1.706667-2.56-4.266667-3.413333-7.68-4.266666s-132.266667-23.893333-179.2-31.573334C622.933333 631.466667 573.44 541.013333 566.613333 532.48M683.52 324.266667c11.946667-22.186667 46.933333-121.173333 49.493333-132.266667v-3.413333c0-6.826667-5.12-12.8-11.946666-12.8 0-29.866667-24.746667-54.613333-54.613334-54.613334s-54.613333 24.746667-54.613333 54.613334 24.746667 54.613333 54.613333 54.613333c5.12 0 11.093333-0.853333 15.36-2.56-0.853333 1.706667-2.56 4.266667-3.413333 6.826667-6.826667 11.946667-22.186667 40.96-30.72 58.88-12.8 2.56-75.093333 18.773333-88.746667 22.186666 6.826667 14.506667 12.8 39.253333 8.533334 71.68 31.573333-13.653333 96.426667-47.786667 107.52-55.466666 4.266667-1.706667 6.826667-4.266667 8.533333-7.68M510.293333 306.346667c27.306667 0 50.346667-22.186667 50.346667-50.346667 0-27.306667-22.186667-50.346667-50.346667-50.346667-27.306667 0-50.346667 22.186667-50.346666 50.346667 0 28.16 22.186667 50.346667 50.346666 50.346667M285.866667 588.8c16.213333-6.826667 135.68-64.853333 145.92-71.68 3.413333-1.706667 5.973333-4.266667 7.68-6.826667 8.533333-9.386667 71.68-109.226667 75.946666-120.32 1.706667-4.266667 2.56-9.386667 2.56-14.506666 0-22.186667-17.92-40.106667-40.106666-40.106667-15.36 0-28.16 8.533333-34.986667 21.333333-5.12 8.533333-34.986667 89.6-45.226667 121.173334-33.28 19.626667-122.88 76.8-129.706666 84.48-2.56 2.56-4.266667 6.826667-4.266667 11.093333 0 8.533333 6.826667 16.213333 16.213333 16.213333 3.413333 0 5.12-0.853333 5.973334-0.853333M174.933333 286.72h2.56c4.266667-0.853333 5.973333-5.12 5.12-9.386667l-34.133333-106.666666c21.333333 9.386667 54.613333 11.946667 76.8 11.946666s55.466667-2.56 76.8-11.946666l-34.133333 106.666666c-0.853333 4.266667 0.853333 7.68 5.12 9.386667h2.56c3.413333 0 5.973333-1.706667 6.826666-5.12 0 0 43.52-116.906667 43.52-135.68 0-29.013333-63.146667-36.693333-99.84-36.693333-9.386667 0-19.626667 0.853333-30.72 1.706666-6.826667 5.973333-13.653333 11.093333-20.48 17.92 14.506667-3.413333 32.426667-4.266667 52.053334-4.266666 45.226667 0 81.92 8.533333 81.92 22.186666s-37.546667 22.186667-81.92 22.186667c-35.84 0-67.413333-5.973333-78.506667-15.36-5.973333 5.973333-11.093333 11.946667-16.213333 17.92 11.946667 40.106667 37.546667 110.933333 37.546666 110.933333-0.853333 2.56 1.706667 4.266667 5.12 4.266667" fill="#117def" p-id="7346"></path></svg>