<?xml version="1.0" standalone="no"?><!DOCTYPE svg PUBLIC "-//W3C//DTD SVG 1.1//EN" "http://www.w3.org/Graphics/SVG/1.1/DTD/svg11.dtd"><svg t="1720829919143" class="icon" viewBox="0 0 1024 1024" version="1.1" xmlns="http://www.w3.org/2000/svg" p-id="4389" xmlns:xlink="http://www.w3.org/1999/xlink" width="200" height="200"><path d="M487.338423 1024C243.772709 1024 0.060709 963.072 0.060709 841.289143 0.060709 741.229714 160.974994 697.709714 256.792137 680.228571c21.723429-4.388571 39.131429 8.704 43.446857 30.427429 4.388571 21.796571-8.704 39.204571-30.427428 43.52-147.894857 26.112-195.803429 73.947429-195.803429 91.428571 0 39.131429 147.968 108.690286 417.645714 108.690286 269.824 0 417.718857-73.947429 417.718858-108.763428 0-17.408-47.835429-65.243429-200.118858-91.355429-21.796571-4.388571-34.816-21.723429-30.500571-43.52 4.388571-21.723429 21.796571-34.816 43.52-30.427429 95.744 17.408 261.12 60.928 261.12 165.302858C978.931566 963.072 730.97728 1024 487.26528 1024z m175.469714-209.92H322.181851c-1.024-2.486857-1.682286-5.12-3.072-7.314286-3.364571-4.973714-2.194286-9.874286 1.024-13.824 4.534857-5.632 9.728-10.825143 15.140572-15.725714 7.021714-6.290286 12.507429-13.385143 11.922286-23.332571-0.877714-14.482286-2.633143-28.891429-3.291429-43.373715-0.365714-8.484571 0.585143-17.042286 1.316571-25.6 0.731429-8.045714 3.145143-16.237714 2.633143-24.283428a111.104 111.104 0 0 0-5.851428-26.331429 151.552 151.552 0 0 0-25.380572-44.909714 170.569143 170.569143 0 0 0-12.726857-14.628572c-12.434286-12.873143-25.307429-25.307429-37.302857-38.473142-8.630857-9.362286-16.091429-19.748571-24.137143-29.622858-0.585143-0.731429-1.316571-1.462857-1.462857-2.194285a37.449143 37.449143 0 0 0-10.020571-17.554286c-2.340571-2.706286-3.364571-6.656-4.754286-10.093714-2.56-6.363429-4.388571-13.092571-7.533714-19.163429a293.814857 293.814857 0 0 0-16.896-30.208 52.224 52.224 0 0 0-31.012572-21.869714c-11.776-3.145143-23.844571-5.485714-34.889143-11.410286-10.020571-5.485714-20.48-9.947429-30.72-15.140571-7.606857-3.949714-15.140571-7.68-20.992-14.701715-4.973714-5.997714-12.141714-10.093714-17.92-15.506285a68.169143 68.169143 0 0 1-19.529143-28.086857C45.40928 316.635429 41.898423 313.197714 39.557851 309.394286c-2.633143-4.315429-5.12-8.777143-7.606857-13.165715L27.050423 288.182857C25.221851 285.257143 22.515566 282.770286 21.637851 279.698286 20.174994 274.285714 16.517851 270.628571 12.933851 266.752c-2.121143-2.267429-3.437714-5.266286-5.12-8.045714C7.448137 258.194286 7.448137 257.243429 6.936137 256.731429c-8.704-7.094857-7.387429-16.457143-5.412571-25.6 1.609143-7.314286 4.315429-14.555429 7.021714-21.577143A30.427429 30.427429 0 0 1 13.957851 201.142857c8.338286-9.801143 11.776-22.089143 16.969143-33.499428 2.925714-6.363429 5.266286-13.092571 11.629715-17.188572a8.484571 8.484571 0 0 0 3.291428-4.973714c1.389714-6.948571 5.632-12.141714 9.508572-17.554286 2.56-3.657143 4.754286-7.387429 6.582857-11.337143a19.602286 19.602286 0 0 1 7.021714-8.045714c4.022857-2.852571 7.168-7.094857 10.459429-10.971429 6.363429-7.314286 12.288-14.994286 18.797714-22.089142 9.508571-10.24 19.456-19.821714 28.891428-29.988572 4.827429-5.266286 9.216-11.044571 13.312-16.896A45.202286 45.202286 0 0 1 158.780709 14.848c4.681143-2.267429 8.996571-5.485714 13.824-7.460571a55.734857 55.734857 0 0 1 15.067428-4.096c15.213714-1.462857 30.134857 1.462857 44.909714 4.608 10.020571 2.121143 20.187429 3.657143 29.769143 6.948571 14.482286 4.973714 25.014857 14.482286 28.306286 30.281143 2.194286 10.24-2.121143 18.724571-8.265143 26.331428a39.350857 39.350857 0 0 1-25.819428 14.628572 32.914286 32.914286 0 0 1-16.091429-2.633143c-8.192-3.437714-15.652571-8.557714-23.771429-12.434286a35.474286 35.474286 0 0 0-33.718857 0.365715 44.324571 44.324571 0 0 0-17.042285 19.602285c-5.12 9.581714-8.338286 19.748571-10.020572 30.646857-1.243429 7.68-4.827429 14.994286-7.314286 22.454858-5.266286 15.579429-11.264 31.012571-15.579428 46.884571-1.974857 7.533714-0.950857 15.945143-0.804572 23.917714 0 1.682286 2.048 3.584 3.437715 4.973715 5.851429 5.632 12.434286 8.484571 20.918857 8.338285a87.771429 87.771429 0 0 1 32.402286 7.094857c2.486857 0.950857 4.461714 3.218286 6.802285 4.681143 3.218286 2.194286 6.582857 4.096 9.874286 6.363429 2.048 1.462857 4.608 2.852571 5.705143 4.900571 4.608 8.265143 12.580571 11.922286 20.48 15.872 10.459429 5.266286 21.723429 5.924571 33.28 6.436572 7.606857 0.292571 16.384 0.731429 22.381714 4.534857 7.899429 5.12 16.822857 7.899429 24.649143 12.873143 11.702857 7.460571 21.065143 16.969143 29.037714 28.233143 3.803429 5.412571 8.777143 9.801143 15.36 11.995428 2.048 0.731429 4.315429 1.828571 5.558857 3.364572 4.973714 6.217143 11.483429 5.485714 17.700572 3.803428a57.417143 57.417143 0 0 0 21.504-12.434286 49.298286 49.298286 0 0 0 14.262857-16.457142 67.291429 67.291429 0 0 0 4.827429-36.498286 79.36 79.36 0 0 0-9.142858-30.427429c-2.925714-5.412571-5.997714-10.825143-7.899428-16.603428-3.657143-11.264-1.243429-22.528 1.097143-33.792 1.828571-8.777143 4.169143-17.700571 4.754285-26.624 0.438857-6.582857-1.389714-13.385143-2.633142-19.968a45.641143 45.641143 0 0 1 8.630857-36.132572c9.728-13.677714 24.649143-19.017143 39.936-23.698285 12.507429-3.803429 24.722286-1.901714 37.302857-0.292572 12.068571 1.462857 23.552 4.315429 34.889143 8.338286 12.434286 4.534857 24.283429 10.093714 33.645714 20.041143a33.28 33.28 0 0 1 9.435429 26.331428c-0.512 7.314286-1.243429 14.628571-1.974858 21.942857-1.170286 11.995429 2.633143 23.186286 5.851429 34.377143 4.242286 14.994286 4.169143 29.476571-4.242286 43.154286a720.603429 720.603429 0 0 1-9.435428 14.848 40.96 40.96 0 0 0-7.899429 24.283429c0.731429 12.580571 2.779429 25.088 12.434286 35.035428 7.826286 8.045714 15.286857 16.091429 24.795428 22.308572 9.947429 6.509714 19.017143 6.070857 28.306286 0 4.973714-3.218286 10.752-6.582857 13.750857-11.337143 4.388571-6.875429 11.264-11.117714 15.872-17.408 2.779429-3.657143 5.193143-7.314286 9.874286-8.777143 1.462857-0.438857 3.218286-1.609143 3.657143-2.925714 1.755429-4.973714 5.997714-6.363429 10.24-8.045715a28.16 28.16 0 0 0 8.045714-4.827428 38.034286 38.034286 0 0 1 23.04-8.557715c10.532571-0.877714 21.065143-1.462857 31.451429-2.633142 10.898286-1.243429 19.236571-7.533714 27.209143-14.336 7.094857-6.144 13.897143-12.8 21.284571-18.432a47.177143 47.177143 0 0 1 23.405714-8.192c9.508571-1.243429 19.163429-2.267429 28.525715-4.608 12.068571-2.998857 16.384-11.483429 16.237714-22.162286a103.131429 103.131429 0 0 0-4.096-27.209143c-8.338286-28.525714-17.408-56.758857-31.963429-82.870857a17.481143 17.481143 0 0 1-1.536-4.973714 8.777143 8.777143 0 0 0-5.632-6.802286c-1.755429-0.731429-3.803429-2.194286-4.388571-3.949714-2.706286-7.021714-8.996571-8.777143-15.067429-10.825143-11.264-3.803429-21.211429-0.365714-30.72 5.485714-8.045714 4.900571-15.798857 10.386286-24.356571 13.750857a40.667429 40.667429 0 0 1-42.642286-7.899428c-8.118857-7.314286-9.508571-17.773714-7.826286-28.16a51.712 51.712 0 0 1 5.558858-15.579429 26.112 26.112 0 0 1 8.045714-8.118857c4.022857-2.925714 8.704-4.827429 12.8-7.460572 7.460571-4.827429 15.945143-6.290286 24.356571-8.045714 6.363429-1.389714 12.653714-3.364571 18.870857-5.485714 17.408-5.851429 35.108571-8.045714 53.028572-2.486857 2.779429 0.950857 5.046857 3.657143 7.533714 5.632l8.045714 6.582857c2.340571 1.828571 5.12 3.291429 6.948572 5.485714 2.633143 3.218286 4.973714 6.363429 9.289143 7.606857 1.828571 0.512 4.096 2.194286 4.608 3.803429 2.194286 6.656 8.265143 9.362286 13.019428 13.312 9.362286 7.753143 19.017143 15.140571 28.086857 23.259428 10.093714 9.069714 19.675429 18.797714 29.330286 28.306286 5.924571 5.851429 12.288 11.337143 17.481143 17.773714 4.096 5.046857 6.729143 11.264 10.093714 16.896 0.877714 1.462857 1.901714 3.218286 3.364572 4.022858 6.436571 3.657143 8.265143 10.24 10.971428 16.457142 2.121143 5.046857 4.973714 9.801143 7.460572 14.628572 0.438857 0.804571 1.097143 1.536 1.243428 2.340571 1.170286 8.118857 6.802286 13.604571 11.044572 20.041143 7.387429 11.190857 11.483429 23.698286 8.557714 37.449143-0.950857 4.681143-2.413714 9.289143-3.364571 14.043429-1.682286 7.899429-8.265143 12.288-12.507429 18.285714-1.097143 1.609143-1.755429 3.437714-2.706286 4.973714-2.194286 3.657143-4.388571 7.094857-6.729143 10.678857-0.950857 1.536-2.486857 2.925714-2.998857 4.608a37.302857 37.302857 0 0 1-9.801143 16.896c-3.876571 3.803429-5.485714 8.338286-7.314285 13.165715-2.340571 6.070857-6.217143 11.483429-9.508572 17.115428-0.950857 1.755429-2.779429 3.364571-3.145143 5.193143-1.389714 6.729143-6.582857 9.874286-11.483428 13.604571-2.633143 1.974857-4.754286 4.681143-6.875429 7.314286a117.101714 117.101714 0 0 1-38.107428 29.110857c-4.900571 2.486857-10.24 4.022857-15.36 6.144-1.243429 0.512-2.267429 1.682286-3.437715 2.56a43.885714 43.885714 0 0 1-18.285714 7.533715c-8.630857 1.828571-16.676571 6.070857-25.014857 9.289142-4.242286 1.609143-8.411429 3.510857-12.726857 4.534858-4.388571 0.950857-5.997714 4.388571-8.411429 7.241142-0.950857 1.097143-1.682286 2.779429-2.925714 3.218286-5.632 1.828571-8.557714 5.851429-10.24 11.337143a21.430857 21.430857 0 0 1-3.437714 6.070857 40.228571 40.228571 0 0 0-8.923429 20.187429 23.405714 23.405714 0 0 1-4.022857 9.947428 102.107429 102.107429 0 0 0-10.166857 19.236572c-2.925714 7.533714-7.533714 14.628571-12.141714 21.357714-2.779429 4.096-6.948571 7.241143-10.386286 10.971429-1.462857 1.462857-3.145143 2.998857-3.510857 4.827428a15.579429 15.579429 0 0 1-6.582857 9.435429 13.677714 13.677714 0 0 0-4.388572 5.12 30.134857 30.134857 0 0 1-10.825143 12.434285c-2.486857 1.828571-4.315429 4.681143-6.582857 6.875429a297.837714 297.837714 0 0 1-12.580571 11.483429c-19.309714 16.384-34.816 35.401143-40.594286 60.708571a43.154286 43.154286 0 0 0-0.146286 16.310857c2.633143 15.36 3.876571 30.646857 3.364572 46.08-0.438857 11.849143-0.512 23.625143-1.024 35.401143-0.292571 7.460571-1.243429 14.921143-1.682286 22.381714-0.731429 11.629714 5.412571 19.602286 13.897143 26.550857 6.363429 5.339429 13.019429 10.678857 14.921143 19.602286 0.585143 2.998857 0.804571 5.485714-1.462857 8.192-1.389714 1.755429-1.462857 4.608-2.340572 7.314286z" fill="#117def" p-id="4390"></path></svg>