<?xml version="1.0" standalone="no"?><!DOCTYPE svg PUBLIC "-//W3C//DTD SVG 1.1//EN" "http://www.w3.org/Graphics/SVG/1.1/DTD/svg11.dtd"><svg t="1719927357363" class="icon" viewBox="0 0 1024 1024" version="1.1" xmlns="http://www.w3.org/2000/svg" p-id="1506" xmlns:xlink="http://www.w3.org/1999/xlink" width="200" height="200"><path d="M832.397 988.654a35.31 35.31 0 0 0 50.492 0l66.38-67.087a35.31 35.31 0 0 0 0-49.433L572.523 477.026a35.31 35.31 0 0 0-50.492 0l-66.381 67.087a35.31 35.31 0 0 0 0 49.433z" fill="#EAF2FF" p-id="1507"></path><path d="M832.397 988.654a35.31 35.31 0 0 0 50.492 0l66.38-67.087a35.31 35.31 0 0 0 0-49.433L572.523 477.026a35.31 35.31 0 0 0-50.492 0l-66.381 67.087a35.31 35.31 0 0 0 0 49.433z m25.775-24.363l66.028-67.087-378.513-395.815-66.38 67.087z" fill="#323F4B" p-id="1508"></path><path d="M480.718 568.476l377.454 395.109 66.028-67.087-377.1-395.11-66.382 67.088z" fill="#EAF2FF" p-id="1509"></path><path d="M976.458 105.927l-84.036 85.448a52.964 52.964 0 0 1-75.561 0 54.376 54.376 0 0 1 0-76.267L900.896 28.6a207.264 207.264 0 0 0-308.954 145.12 209.383 209.383 0 0 0 15.183 123.23L451.412 455.133a50.492 50.492 0 0 0-7.062 8.121l-137 139.118-4.942 5.296a205.146 205.146 0 0 0-79.093 0A211.854 211.854 0 0 0 79.607 918.036l84.036-85.095a52.964 52.964 0 0 1 75.561 0 54.376 54.376 0 0 1 0 76.268l-84.035 86.154a207.264 207.264 0 0 0 308.954-145.12 209.383 209.383 0 0 0-15.183-123.23L604.653 568.83a50.492 50.492 0 0 0 7.062-8.12l137-139.119 4.943-5.296a205.146 205.146 0 0 0 79.092 0 211.854 211.854 0 0 0 143.708-310.367z" fill="#EAF2FF" p-id="1510"></path><path d="M832.75 417.353a205.146 205.146 0 0 1-79.092 0l-4.944 5.297-136.999 139.117a50.492 50.492 0 0 1-7.062 8.122L448.94 728.073a209.736 209.736 0 0 1-260.228 284.238 222.8 222.8 0 0 1-33.543-15.889l25.422-26.129 58.613-60.378a54.376 54.376 0 0 0 0-76.268 52.964 52.964 0 0 0-75.561 0l-58.613 58.26-25.423 26.129a211.854 211.854 0 0 1 143.708-312.485 205.146 205.146 0 0 1 79.093 0l4.943-5.297 137-139.117a50.492 50.492 0 0 1 7.06-8.122l155.714-158.184a209.383 209.383 0 0 1-15.183-123.229 207.617 207.617 0 0 1 275.41-158.89A222.8 222.8 0 0 1 900.897 28.6l-25.422 26.13-58.613 60.378a54.376 54.376 0 0 0 0 76.267 52.964 52.964 0 0 0 75.561 0l58.613-59.319 25.423-26.129A211.854 211.854 0 0 1 832.75 418.413zM253.68 988.654a165.246 165.246 0 0 1-37.428-5.65l46.962-49.079a87.92 87.92 0 0 0 25.775-63.203 89.332 89.332 0 0 0-88.626-89.332 84.389 84.389 0 0 0-62.85 26.482l-45.902 47.314a173.368 173.368 0 0 1-4.943-35.31 176.545 176.545 0 0 1 16.242-78.385 173.368 173.368 0 0 1 49.786-63.91 168.424 168.424 0 0 1 76.62-35.309 171.249 171.249 0 0 1 65.676 0 35.31 35.31 0 0 0 35.309-12.358l3.53-2.825 137-138.764 3.53-4.238 3.532-4.237 155.713-158.184a35.31 35.31 0 0 0 5.65-39.193 173.014 173.014 0 0 1-12.359-102.75 173.014 173.014 0 0 1 97.1-128.172 172.661 172.661 0 0 1 78.386-16.242 165.246 165.246 0 0 1 37.428 5.65l-46.961 49.08a87.92 87.92 0 0 0-25.776 63.202 85.801 85.801 0 0 0 25.776 62.85 87.92 87.92 0 0 0 125.7 0l46.961-47.314a173.368 173.368 0 0 1 4.943 35.31 176.545 176.545 0 0 1-16.242 79.798 173.368 173.368 0 0 1-49.786 63.91 168.424 168.424 0 0 1-76.62 35.309 171.249 171.249 0 0 1-65.675 0 35.31 35.31 0 0 0-35.31 12.358l-2.47 2.824-137 138.765-3.531 4.237-3.531 4.237L424.577 703.71a35.31 35.31 0 0 0-7.062 39.193 173.014 173.014 0 0 1 12.358 102.75 173.014 173.014 0 0 1-96.04 126.759 172.661 172.661 0 0 1-80.152 16.242z" fill="#323F4B" p-id="1511"></path><path d="M991.64 282.473l2.826-7.062z m-22.244 43.43a62.144 62.144 0 0 0 5.65-8.121 62.144 62.144 0 0 1-5.65 8.12z m25.423-178.311l3.177 10.24z m-13.065 157.832l4.237-8.475z m18.714-52.611z m-24.01-146.886a192.788 192.788 0 0 1 14.477 31.425 192.788 192.788 0 0 0-14.477-31.425z m28.247 123.582a62.497 62.497 0 0 0 0-8.121 62.497 62.497 0 0 1 0 8.121z m-53.67-97.453l25.423-25.776-84.036 85.095 58.613-59.319zM755.423 4.237h-4.59z m61.438 110.87L900.896 28.6l-25.422 26.13-58.613 60.378zM784.73 0z m-51.905 10.24l-7.768 3.177zM900.896 28.6a211.854 211.854 0 0 0-30.012-14.476A259.875 259.875 0 0 1 900.896 28.6zM825.335 2.12l9.887 1.765zM810.858 0h-9.18zM653.733 58.26l-7.415 7.062zM373.732 988.654l-8.474 5.297z m10.946-7.415l7.768-6.355z m-39.9 24.01l8.475-4.237z m88.273-76.267l5.297-8.474z m567.77-757.027a82.27 82.27 0 0 1 1.766 9.887 82.27 82.27 0 0 0-1.766-9.887z" fill="#EAF2FF" p-id="1512"></path><path d="M953.154 284.238a176.545 176.545 0 0 0 16.242-79.798 173.368 173.368 0 0 0-4.943-35.31l-46.961 46.962a87.92 87.92 0 0 1-125.7 0 85.801 85.801 0 0 1-25.776-62.85 87.92 87.92 0 0 1 26.835-63.204l48.02-49.08a165.246 165.246 0 0 0-38.487-5.649 172.661 172.661 0 0 0-141.236 66.381 176.545 176.545 0 0 0-35.31 78.033 173.014 173.014 0 0 0 13.418 102.75 35.31 35.31 0 0 1-7.062 39.193L475.07 479.85l-3.53 4.237-3.532 4.238-134.174 138.764-2.472 2.825a35.31 35.31 0 0 1-35.309 12.358 171.249 171.249 0 0 0-65.675 0 168.424 168.424 0 0 0-76.62 35.31 173.368 173.368 0 0 0-50.846 63.909 176.545 176.545 0 0 0-16.242 78.033 173.368 173.368 0 0 0 4.943 35.309l46.961-47.314a84.389 84.389 0 0 1 62.85-26.482 89.332 89.332 0 0 1 88.626 89.332 86.507 86.507 0 0 1-26.834 63.556l-46.962 49.08a165.246 165.246 0 0 0 37.428 5.65 172.661 172.661 0 0 0 141.236-66.382 176.545 176.545 0 0 0 35.31-78.033 173.014 173.014 0 0 0-13.418-102.75 35.31 35.31 0 0 1 7.062-39.192l157.125-158.185 3.531-4.237 3.531-4.237 134.175-138.765 2.471-2.825a35.31 35.31 0 0 1 35.31-12.358 171.249 171.249 0 0 0 65.674 0 168.424 168.424 0 0 0 76.62-35.309 173.368 173.368 0 0 0 50.846-62.144zM445.056 907.443a67.793 67.793 0 0 0 4.237-8.827 67.793 67.793 0 0 1-4.237 8.827z m-344.97-228.45l-6.355 7.769zM955.98 344.97l6.355-7.768zM711.287 18.714l-8.474 4.237z m293.418 186.785a74.502 74.502 0 0 1 0-9.18 74.502 74.502 0 0 0 0 9.18zM623.014 94.98l-6.709 8.475z m59.32-59.672l8.473-5.296z m-71.325 81.211a67.793 67.793 0 0 0-4.237 8.827 67.793 67.793 0 0 1 4.237-8.827z m60.378-73.796l-7.768 6.356zM859.232 10.24a56.848 56.848 0 0 0-10.24-3.178c3.531 0.706 6.709 2.118 10.24 3.178zM230.73 1021.845l-9.886-1.766z m92.51-8.121l7.768-3.178z m-22.598 6.002h4.59z m-29.306 4.237z m130.996-58.26l7.415-7.062z m-247.163 29.66a259.875 259.875 0 0 0 30.012 14.477 259.875 259.875 0 0 1-30.012-14.477z m42.018 18.714l9.886 2.824z m48.02 9.886h9.18z m212.914-148.65a70.618 70.618 0 0 1-2.825 7.767 70.618 70.618 0 0 0 2.825-7.768z m-39.547 73.089l6.356-7.768zM940.09 362.624l7.061-7.415z m-82.27 48.727l7.767-2.825z m72.03-39.9l-7.768 6.71z" fill="#EAF2FF" p-id="1513"></path><path d="M239.204 909.209l-84.035 86.154 25.422-26.129 58.613-60.025zM902.31 391.578l8.474-5.65zM637.49 75.56l-6.356 7.768z m243.28 326.962c3.177 0 5.649-2.824 8.827-4.237-3.178 1.413-5.65 3.178-8.828 4.237z m-682.525 210.09l-7.768 2.824z m-72.03 39.899l7.767-6.709z m-45.196 53.67a62.144 62.144 0 0 1 5.65-8.122 62.144 62.144 0 0 0-5.65 8.122z m34.956-44.843l-7.062 7.415z m59.319-39.9c-3.178 0-5.65 2.826-8.827 4.238 3.177-1.412 5.65-3.178 8.827-4.237z m422.65-472.788a50.492 50.492 0 0 1 2.824-7.415 50.492 50.492 0 0 0-2.824 7.415zM153.756 632.386l-8.474 5.649zM51.36 802.576a62.497 62.497 0 0 1 0-8.122 62.497 62.497 0 0 0 0 8.121z m3.884 49.432a82.27 82.27 0 0 1-1.765-9.886 82.27 82.27 0 0 0 1.765 9.886z m14.83-124.994l4.237-8.474z m-18.714 91.45a74.502 74.502 0 0 1 0 9.18 74.502 74.502 0 0 0 0-9.18z m9.887 57.907l-3.178-10.24z m0.353-127.819l2.824-7.061z m-6.003 23.658z m24.01 145.826a192.788 192.788 0 0 1-14.476-31.425 192.788 192.788 0 0 0 14.476 31.425z" fill="#EAF2FF" p-id="1514"></path><path d="M369.142 499.27a16.948 16.948 0 0 0 12.711-6.002l97.453-92.863a15.89 15.89 0 0 0 0-23.304L373.38 264.818v-3.884c-4.237-10.593-9.887-16.595-4.237-28.6l6.002-10.593a461.137 461.137 0 0 1 50.14-62.85 234.452 234.452 0 0 1 146.179-63.203h2.471a19.067 19.067 0 0 0 16.596-10.24 16.948 16.948 0 0 0-9.534-23.304 338.261 338.261 0 0 0-362.27 67.44L23.818 311.073a13.064 13.064 0 0 0-4.59 11.652 21.185 21.185 0 0 0 4.237 12.005L134.689 445.6a18.714 18.714 0 0 0 25.423 0l78.033-73.795 12.358 12.71L356.43 494.68a50.492 50.492 0 0 0 12.712 4.59z" fill="#A1D7FF" p-id="1515"></path><path d="M250.503 384.516l-12.358-12.711-78.033 73.796a18.714 18.714 0 0 1-25.423 0L23.466 334.73a21.185 21.185 0 0 1-4.237-12.006 13.064 13.064 0 0 1 4.59-11.652l194.906-181.489a337.555 337.555 0 0 1 355.562-70.618l6.003 2.472a16.948 16.948 0 0 1 9.533 22.598 19.773 19.773 0 0 1-9.886 8.827 15.183 15.183 0 0 1-6.709 0h-6.709a235.512 235.512 0 0 0-141.236 62.85 461.137 461.137 0 0 0-50.492 61.438l-6.002 10.593a22.95 22.95 0 0 0 1.765 22.95s1.766 3.531 2.472 5.65v3.884L478.953 372.51a15.89 15.89 0 0 1 0 23.304l-96.394 98.512a16.948 16.948 0 0 1-12.711 6.003 50.492 50.492 0 0 1-13.418-6.003z m-7.768-229.51L62.305 323.432l85.802 85.448 91.097-86.86 35.31 37.78 94.628 99.219 72.383-70.618-98.865-104.162-3.884-9.886a16.948 16.948 0 0 0-1.766-3.884 60.025 60.025 0 0 1-3.177-52.611l3.884-6.003 3.177-2.824 3.531-6.356a469.61 469.61 0 0 1 55.083-67.793 270.114 270.114 0 0 1 93.922-57.907 304.011 304.011 0 0 0-250.695 78.033zM454.59 402.17z m-295.184 18.714z m-24.363 0z" fill="#323F4B" p-id="1516"></path></svg>