<?xml version="1.0" standalone="no"?><!DOCTYPE svg PUBLIC "-//W3C//DTD SVG 1.1//EN" "http://www.w3.org/Graphics/SVG/1.1/DTD/svg11.dtd"><svg t="1719928763162" class="icon" viewBox="0 0 1024 1024" version="1.1" xmlns="http://www.w3.org/2000/svg" p-id="3466" xmlns:xlink="http://www.w3.org/1999/xlink" width="200" height="200"><path d="M518.4 862.72C295.68 862.72 115.2 698.88 115.2 495.36 115.2 291.84 295.68 128 518.4 128S921.6 291.84 921.6 495.36c0 106.24-49.92 204.8-134.4 273.92l-25.6 149.76-154.88-65.28c-29.44 5.12-58.88 8.96-88.32 8.96z m221.44-121.6l7.68-6.4C825.6 675.84 870.4 588.8 870.4 495.36 870.4 321.28 712.96 179.2 518.4 179.2S166.4 321.28 166.4 495.36s157.44 316.16 352 316.16c28.16 0 56.32-2.56 84.48-8.96l7.68-1.28 111.36 47.36 17.92-107.52z" fill="#0093CB" p-id="3467"></path><path d="M780.8 495.36C780.8 363.52 660.48 256 512 256s-268.8 107.52-268.8 239.36 120.32 239.36 268.8 239.36c21.76 0 43.52-2.56 64-6.4l94.72 39.68 15.36-89.6c57.6-43.52 94.72-110.08 94.72-183.04z" fill="#E6F7FF" p-id="3468"></path><path d="M592.64 555.52c2.56 0 5.12 2.56 5.12 6.4 0 12.8-51.2 65.28-96 65.28-15.36 0-26.88-17.92-26.88-34.56 0-20.48 15.36-46.08 17.92-52.48l30.72-75.52c2.56-7.68-1.28-11.52-3.84-11.52-16.64 0-32 42.24-39.68 42.24-2.56 0-5.12-3.84-5.12-6.4 0-7.68 14.08-29.44 20.48-35.84 17.92-16.64 40.96-28.16 66.56-28.16 19.2 0 39.68 11.52 23.04 52.48l-32 84.48c-2.56 6.4-7.68 16.64-7.68 24.32 0 3.84 1.28 6.4 5.12 6.4 11.52-1.28 35.84-37.12 42.24-37.12zM583.68 345.6c17.92 0 30.72 11.52 30.72 29.44 0 20.48-16.64 34.56-37.12 34.56-17.92 0-29.44-11.52-29.44-29.44 0-19.2 16.64-34.56 35.84-34.56z" fill="#0093CB" p-id="3469"></path></svg>