<?xml version="1.0" standalone="no"?><!DOCTYPE svg PUBLIC "-//W3C//DTD SVG 1.1//EN" "http://www.w3.org/Graphics/SVG/1.1/DTD/svg11.dtd"><svg t="1719981596871" class="icon" viewBox="0 0 1024 1024" version="1.1" xmlns="http://www.w3.org/2000/svg" p-id="12875" xmlns:xlink="http://www.w3.org/1999/xlink" width="200" height="200"><path d="M927.573333 640L810.666667 522.666667a38.186667 38.186667 0 0 0-11.946667-8.106667 35.84 35.84 0 0 0-13.653333-2.56 34.773333 34.773333 0 0 0-13.226667 2.56 35.413333 35.413333 0 0 0-11.946667 7.893333L642.56 640a35.626667 35.626667 0 1 0 50.346667 50.346667l56.746666-56.746667v269.44a35.626667 35.626667 0 1 0 71.04 0V633.386667l56.746667 56.746666A35.626667 35.626667 0 1 0 927.573333 640z" p-id="12876" fill="#d81e06"></path><path d="M678.613333 488.96a35.2 35.2 0 0 0 31.573334-50.773333L544.426667 106.666667a34.346667 34.346667 0 0 0-62.72 0L89.813333 887.253333a34.986667 34.986667 0 0 0 1.493334 34.56A35.626667 35.626667 0 0 0 121.6 938.666667h541.226667a35.626667 35.626667 0 0 0 34.986666-42.666667A36.693333 36.693333 0 0 0 661.333333 867.626667H178.986667L512 200.32 647.253333 469.333333a34.986667 34.986667 0 0 0 31.36 19.626667z" p-id="12877" fill="#d81e06"></path><path d="M455.04 821.12a30.506667 30.506667 0 0 0 16 4.266667 32.213333 32.213333 0 0 0 27.733333-16L597.333333 637.013333v-1.706666l1.493334-3.2v-5.973334-3.413333-1.706667-1.28V613.546667a10.666667 10.666667 0 0 0 0-2.773334l-1.066667-3.2-0.426667-2.56v-2.773333l-1.706666-2.133333-3.2-2.773334a8.32 8.32 0 0 0-2.133334-1.706666l-2.986666-2.346667h-1.493334l-3.413333-1.706667H469.333333l71.893334-124.586666a32.213333 32.213333 0 0 0-11.733334-43.733334 31.786667 31.786667 0 0 0-42.666666 11.733334l-99.626667 172.586666v1.493334a21.333333 21.333333 0 0 0-1.493333 3.2 19.84 19.84 0 0 0 0 2.773333 17.706667 17.706667 0 0 0 0 3.2 18.346667 18.346667 0 0 0 0 3.413333V633.813333l1.28 2.986667a16 16 0 0 0 1.493333 2.56 10.026667 10.026667 0 0 0 1.493333 2.56l1.92 2.56 2.133334 2.133333 2.346666 1.92 2.773334 2.133334h1.066666l5.546667 2.133333h1.92a27.093333 27.093333 0 0 0 7.253333 0h101.333334l-71.893334 124.373333a31.786667 31.786667 0 0 0 10.666667 43.946667z" p-id="12878" fill="#d81e06"></path></svg>