<?xml version="1.0" standalone="no"?><!DOCTYPE svg PUBLIC "-//W3C//DTD SVG 1.1//EN" "http://www.w3.org/Graphics/SVG/1.1/DTD/svg11.dtd"><svg t="1720361917808" class="icon" viewBox="0 0 1024 1024" version="1.1" xmlns="http://www.w3.org/2000/svg" p-id="10642" xmlns:xlink="http://www.w3.org/1999/xlink" width="200" height="200"><path d="M950.1 712h-44.4c-3.3 0-6-2.7-6-6V81.7c0-6.6-5.4-12-12-12H139.8c-6.6 0-12 5.4-12 12V706c0 3.3-2.7 6-6 6h-46c-6.6 0-12 5.4-12 12v216.6c0 6.6 5.4 12 12 12h874.3c6.6 0 12-5.4 12-12V724c0-6.6-5.4-12-12-12zM192 139.9c0-3.3 2.7-6 6-6h631.4c3.3 0 6 2.7 6 6v565.7c0 3.3-2.7 6-6 6H198c-3.3 0-6-2.7-6-6V139.9z m705.9 742.6c0 3.3-2.7 6-6 6H134c-3.3 0-6-2.7-6-6V782.3c0-3.3 2.7-6 6-6h757.9c3.3 0 6 2.7 6 6v100.2z" fill="#117def" p-id="10643"></path><path d="M390.8 390.4H764c3.3 0 6-2.7 6-6v-52c0-3.3-2.7-6-6-6H390.8c-3.3 0-6 2.7-6 6v52c0 3.3 2.7 6 6 6zM262.2 647.5h52.2c3.3 0 6-2.7 6-6v-52.2c0-3.3-2.7-6-6-6h-52.2c-3.3 0-6 2.7-6 6v52.2c0 3.4 2.7 6 6 6zM390.8 647.5h373.5c3.3 0 6-2.7 6-6v-52.2c0-3.3-2.7-6-6-6H390.8c-3.3 0-6 2.7-6 6v52.2c0 3.3 2.7 6 6 6zM390.8 261.9H764c3.3 0 6-2.7 6-6v-52.2c0-3.3-2.7-6-6-6H390.8c-3.3 0-6 2.7-6 6v52.2c0 3.3 2.7 6 6 6zM390.8 519.2h373.5c3.3 0 6-2.7 6-6V461c0-3.3-2.7-6-6-6H390.8c-3.3 0-6 2.7-6 6v52.1c0 3.4 2.7 6.1 6 6.1zM262.2 519.2h52.2c3.3 0 6-2.7 6-6V461c0-3.3-2.6-6-6-6h-52.2c-3.3 0-6 2.7-6 6v52.2c0 3.3 2.7 6 6 6zM314.5 326.4h-52.2c-3.3 0-6 2.7-6 6v52c0 3.3 2.6 6 6 6h52.2c3.3 0 6-2.7 6-6v-52c0.1-3.3-2.6-6-6-6zM262.2 261.9h52.2c3.3 0 6-2.7 6-6v-52.2c0-3.3-2.6-6-6-6h-52.2c-3.3 0-6 2.7-6 6v52.2c0 3.3 2.7 6 6 6z" fill="#117def" p-id="10644"></path></svg>